<?xml version="1.0" encoding="UTF-8" standalone="no"?>
<!-- Created with Inkscape (http://www.inkscape.org/) -->

<svg
   width="1284"
   height="344"
   viewBox="0 0 339.72499 91.016666"
   version="1.1"
   id="svg1"
   sodipodi:docname="logo.svg"
   inkscape:version="1.3.2 (091e20ef0f, 2023-11-25)"
   xmlns:inkscape="http://www.inkscape.org/namespaces/inkscape"
   xmlns:sodipodi="http://sodipodi.sourceforge.net/DTD/sodipodi-0.dtd"
   xmlns="http://www.w3.org/2000/svg"
   xmlns:svg="http://www.w3.org/2000/svg">
  <sodipodi:namedview
     id="namedview1"
     pagecolor="#ffffff"
     bordercolor="#666666"
     borderopacity="1.0"
     inkscape:showpageshadow="2"
     inkscape:pageopacity="0.0"
     inkscape:pagecheckerboard="0"
     inkscape:deskcolor="#d1d1d1"
     inkscape:document-units="mm"
     inkscape:zoom="0.50205276"
     inkscape:cx="594.55903"
     inkscape:cy="267.90013"
     inkscape:window-width="1920"
     inkscape:window-height="1011"
     inkscape:window-x="0"
     inkscape:window-y="32"
     inkscape:window-maximized="1"
     inkscape:current-layer="layer1" />
  <defs
     id="defs1" />
  <g
     inkscape:label="Layer 1"
     inkscape:groupmode="layer"
     id="layer1">
    <path
       style="font-size:109.553px;line-height:1.25;font-family:'TeX Gyre Adventor';-inkscape-font-specification:'TeX Gyre Adventor';stroke-width:0.57059;fill:#0099db;fill-opacity:1"
       d="m 339.72433,63.420249 c 0,-7.120946 -2.95793,-13.47502 -8.10692,-17.309375 -3.28659,-2.410166 -6.68273,-3.943908 -15.00876,-6.463627 -7.34005,-2.19106 -9.85977,-3.177037 -11.94128,-5.039438 -2.30061,-1.971954 -3.83435,-5.696756 -3.83435,-9.421558 0,-8.106922 5.91586,-14.132337 14.02278,-14.132337 8.21648,0 14.461,5.696756 14.461,14.460996 h 8.43558 c 0,-13.14636 -9.42156,-21.9106002 -22.67747,-21.9106002 -13.03681,0 -22.45837,9.2024522 -22.45837,21.8010472 0,5.587203 2.08151,10.9553 5.69676,14.351443 3.17704,3.067484 5.69675,4.272567 15.11831,7.120945 13.91323,4.272567 18.07625,8.106922 18.07625,16.980716 0,9.312005 -6.79229,16.104291 -15.99474,16.104291 -9.0929,0 -15.66608,-5.806309 -16.87116,-16.652056 h -8.65469 c 0.76687,14.570549 10.73619,24.10166 25.30674,24.10166 14.02279,0 24.43032,-10.188429 24.43032,-23.992107 z"
       id="path9" />
    <path
       style="font-size:109.553px;line-height:1.25;font-family:'TeX Gyre Adventor';-inkscape-font-specification:'TeX Gyre Adventor';stroke-width:0.57059;fill:#0099db;fill-opacity:1"
       d="m 282.75684,45.563109 c 0,-23.115683 -19.28133,-41.9587992 -42.72567,-41.9587992 -23.22524,0 -42.83523,18.9526692 -42.83523,41.4110342 0,23.553896 19.06223,42.397012 42.83523,42.397012 23.44434,0 42.72567,-18.952669 42.72567,-41.849247 z m -8.21648,0.109553 c 0,18.733564 -15.66608,34.29009 -34.50919,34.29009 -19.06222,0 -34.61875,-15.556526 -34.61875,-34.728302 0,-18.514457 15.88518,-34.180536 34.61875,-34.180536 18.84311,0 34.50919,15.666079 34.50919,34.618748 z"
       id="path8" />
    <path
       style="font-size:109.553px;line-height:1.25;font-family:'TeX Gyre Adventor';-inkscape-font-specification:'TeX Gyre Adventor';stroke-width:0.57059;fill:#5a31f4;fill-opacity:1"
       d="M 197.19587,85.988167 V 78.648116 H 163.67265 V 5.0284988 h -8.10692 V 85.988167 Z"
       id="path7" />
    <path
       style="font-size:109.553px;line-height:1.25;font-family:'TeX Gyre Adventor';-inkscape-font-specification:'TeX Gyre Adventor';stroke-width:0.57059;fill:#5a31f4;fill-opacity:1"
       d="m 142.41942,45.563109 c 0,-23.115683 -19.28132,-41.9587992 -42.725666,-41.9587992 -23.225236,0 -42.835223,18.9526692 -42.835223,41.4110342 0,23.553896 19.062222,42.397012 42.835223,42.397012 23.444346,0 42.725666,-18.952669 42.725666,-41.849247 z m -8.21647,0.109553 c 0,18.733564 -15.66608,34.29009 -34.509196,34.29009 -19.062222,0 -34.618748,-15.556526 -34.618748,-34.728302 0,-18.514457 15.885185,-34.180536 34.618748,-34.180536 18.843116,0 34.509196,15.666079 34.509196,34.618748 z"
       id="path6" />
    <path
       style="font-size:109.553px;line-height:1.25;font-family:'TeX Gyre Adventor';-inkscape-font-specification:'TeX Gyre Adventor';stroke-width:0.57059;fill:#5a31f4;fill-opacity:1"
       d="M 55.763145,85.988167 23.773668,44.467579 55.763145,5.0284988 H 45.574715 L 8.107589,51.588524 V 5.0284988 H 6.6685486e-4 V 85.988167 H 8.107589 V 63.858461 L 18.624677,50.931206 45.574715,85.988167 Z"
       id="text1" />
  </g>
</svg>
